<?xml version='1.0' encoding='utf-8'?>
<svg xmlns="http://www.w3.org/2000/svg" id="Layer_1" style="enable-background:new -0.258 -0.548 123.547 123.539" xml:space="preserve" viewBox="70.224 17.651 45.821 86.092" version="1.1" y="0px" x="0px">
<path style="fill:#000000" d="m95.484 32.941c3.711 0 6.711-2.984 6.711-6.695 0-3.688-3-6.688-6.711-6.688-3.688 0-6.688 3-6.688 6.688-0.004 3.711 2.996 6.695 6.683 6.695z" />
	<path style="fill:#000000" d="m86.43 97.879c0 2.078 1.656 3.758 3.734 3.758 2.07 0 3.758-1.68 3.758-3.758v-31.495h3.148v31.492c0 2.078 1.688 3.758 3.758 3.758 2.078 0 3.742-1.68 3.742-3.758l0.023-54.297h3.125v20.016c0 4.031 5.242 4.031 5.242 0v-20.456c0-4.445-3.461-8.789-8.664-8.789l-17.75-0.023c-4.758 0-8.57 3.875-8.57 8.688v20.578c0 3.984 5.273 3.984 5.273 0v-20.017h3.18v54.297z" />
</svg>