<?xml version='1.0' encoding='utf-8'?>
<svg xmlns="http://www.w3.org/2000/svg" id="Layer_1" style="enable-background:new -0.258 -0.548 123.547 123.539" xml:space="preserve" viewBox="7.502 17.651 45.821 86.092" version="1.1" y="0px" x="0px">
<path style="fill:#000000" d="m36.664 34.473c4.688 0 8.047 3.859 8.75 5.961l5.742 18.898c1.148 4.047-4.016 5.734-5.25 1.781l-5.164-17.336h-2.977l8.656 30.812h-8.258v24.047c0 4.102-6.164 4.078-6.164 0v-24.195h-3.133v24.149c0 4.148-6.195 4.148-6.195 0v-24h-8.273l8.57-30.812h-2.844l-5.18 17.383c-1.219 3.781-6.43 2.25-5.242-1.828l5.742-18.898c0.617-2.148 3.336-5.961 8.047-5.961h13.173z" />
	<path style="fill:#000000" d="m30.43 33.059c3.695 0 6.695-3 6.695-6.688 0-3.711-3-6.711-6.695-6.711-3.703 0-6.695 3-6.695 6.711-0.001 3.688 2.992 6.688 6.695 6.688z" />
	</svg>